<?xml version="1.0" encoding="UTF-8"?>
<svg xmlns="http://www.w3.org/2000/svg" xmlns:xlink="http://www.w3.org/1999/xlink" width="768pt" height="767.999994pt" viewBox="0 0 768 767.999994" version="1.2">
<defs>
<clipPath id="clip1">
  <path d="M 63.410156 3.199219 L 704.660156 3.199219 L 704.660156 764 L 63.410156 764 Z M 63.410156 3.199219 "/>
</clipPath>
<clipPath id="clip2">
  <path d="M 63.410156 3.199219 L 704.660156 3.199219 L 704.660156 764.449219 L 63.410156 764.449219 Z M 63.410156 3.199219 "/>
</clipPath>
<clipPath id="clip3">
  <path d="M 213.660156 213.660156 L 505 213.660156 L 505 385 L 213.660156 385 Z M 213.660156 213.660156 "/>
</clipPath>
<clipPath id="clip4">
  <path d="M 264 384 L 554.160156 384 L 554.160156 554.160156 L 264 554.160156 Z M 264 384 "/>
</clipPath>
</defs>
<g id="surface1">
<path style="fill-rule:evenodd;fill:rgb(100%,76.469421%,0%);fill-opacity:1;stroke-width:2;stroke-linecap:butt;stroke-linejoin:miter;stroke:rgb(0%,0%,0%);stroke-opacity:1;stroke-miterlimit:4;" d="M 790.942902 118.810043 L 796.521133 118.810043 L 820.53945 130.88933 C 836.560063 138.942187 847.14526 144.221096 852.286642 146.71765 C 857.436425 149.214204 874.952406 157.334309 904.842988 171.086371 C 934.733569 184.830026 950.174516 191.773305 951.174229 191.907799 C 952.182343 192.050699 960.11284 195.312191 974.990923 201.700679 C 989.860606 208.080762 1001.3027 212.804881 1009.308806 215.856224 C 1017.314912 218.915974 1028.899822 223.076897 1044.055137 228.355806 C 1059.218852 233.634715 1068.795936 236.963453 1072.803189 238.350428 C 1076.810442 239.737402 1081.809008 241.410178 1087.815687 243.351942 C 1093.822367 245.293706 1101.54284 247.655766 1110.985509 250.429714 C 1120.419776 253.203663 1132.433135 256.540808 1147.025586 260.424336 C 1161.609636 264.316271 1175.765237 267.78791 1189.49239 270.839253 C 1203.227944 273.890597 1212.090947 275.840767 1216.0982 276.672952 C 1220.097052 277.505137 1232.824492 279.867196 1254.272119 283.750725 C 1275.728146 287.642659 1289.169667 289.996312 1294.605082 290.836903 C 1300.040496 291.669088 1313.339201 293.745346 1334.501195 297.082491 C 1355.663189 300.41123 1366.391203 302.075599 1366.676835 302.075599 C 1366.962467 302.075599 1377.262033 304.025769 1397.56713 307.909297 C 1417.872227 311.801232 1428.096183 313.810243 1428.239 313.953144 L 1428.457424 314.154885 L 1427.163678 376.224093 C 1426.306781 417.597961 1424.164539 471.051115 1420.72855 536.583556 C 1417.300962 602.115996 1414.587455 647.928182 1412.579628 674.028519 C 1410.580202 700.128857 1408.295143 722.488566 1405.716052 741.090835 C 1403.145361 759.693104 1400.13782 777.328694 1396.710233 793.989199 C 1393.274244 810.649704 1389.561024 827.444704 1385.553771 844.382604 C 1381.546517 861.320504 1377.976113 876.182145 1374.825757 888.950716 C 1371.683801 901.727693 1367.96218 915.471348 1363.677696 930.190089 C 1359.38481 944.90883 1356.814119 953.793872 1355.948821 956.845216 C 1355.091924 959.89656 1353.806579 963.788494 1352.092785 968.504207 C 1350.378991 973.228326 1348.371164 979.062025 1346.086106 986.005303 C 1343.801047 992.940175 1340.222242 1002.943203 1335.358092 1015.989168 C 1330.493942 1029.04354 1326.495089 1039.450051 1323.344733 1047.225514 C 1320.202777 1055.000977 1316.33834 1064.306314 1311.768223 1075.133121 C 1307.189705 1085.968333 1301.325842 1099.014299 1294.176633 1114.28783 C 1287.027424 1129.56136 1282.734539 1138.446402 1281.306377 1140.942956 C 1279.878215 1143.447916 1274.652824 1152.543106 1265.647005 1168.228526 C 1256.632786 1183.913946 1251.205772 1193.219284 1249.340761 1196.136133 C 1247.484151 1199.052982 1243.048449 1206.40815 1236.042056 1218.210041 C 1229.035664 1230.011933 1224.457146 1237.510001 1222.314903 1240.704245 C 1220.172661 1243.898489 1216.879488 1248.891597 1212.452188 1255.700381 C 1208.016486 1262.500758 1204.437681 1267.779667 1201.724174 1271.528701 C 1199.010667 1275.277735 1195.86031 1279.716053 1192.281506 1284.852062 C 1188.711102 1289.996476 1185.275113 1294.712189 1181.990341 1299.016013 C 1178.697169 1303.319836 1176.126478 1306.934376 1174.269868 1309.851225 C 1172.404857 1312.759669 1169.69135 1316.508702 1166.112545 1321.089921 C 1162.542141 1325.67114 1159.106152 1330.252358 1155.821381 1334.841983 C 1152.528208 1339.423201 1148.957804 1344.138914 1145.093367 1348.997528 C 1141.237331 1353.856141 1137.944158 1358.025471 1135.230651 1361.49711 C 1132.508744 1364.968749 1126.720489 1371.558979 1117.849085 1381.284612 C 1108.986082 1391.001839 1098.543701 1402.10604 1086.530342 1414.605622 C 1074.516983 1427.096798 1063.940186 1437.78911 1054.78315 1446.674152 C 1045.634515 1455.559194 1039.552227 1461.182745 1036.553088 1463.544805 C 1033.545548 1465.906864 1026.539155 1471.875057 1015.53391 1481.45779 C 1004.520264 1491.032116 997.799504 1496.865815 995.363228 1498.950479 C 992.935354 1501.026738 986.928674 1506.171152 977.351591 1514.358505 C 967.766106 1522.554263 961.473794 1527.824765 958.474655 1530.186825 C 955.467115 1532.548884 952.039527 1535.322833 948.17509 1538.517077 C 944.310653 1541.711322 938.950846 1546.082393 932.08727 1551.638696 C 925.223693 1557.195 920.006703 1561.288676 916.427898 1563.92813 C 912.849093 1566.559179 909.421506 1568.921238 906.128333 1571.005903 C 902.843561 1573.090568 896.836882 1576.696701 888.108294 1581.832709 C 879.388108 1586.968718 873.667061 1590.440357 870.953554 1592.247627 C 868.231646 1594.054896 865.156898 1595.929413 861.72931 1597.871177 C 858.293321 1599.812942 854.722918 1602.040507 851.001297 1604.537061 C 847.288076 1607.033615 844.566169 1608.840884 842.852375 1609.950464 C 841.138581 1611.060043 837.41696 1613.001808 831.695912 1615.784162 C 825.974865 1618.558111 819.111289 1621.752356 811.105183 1625.358489 C 803.099077 1628.973029 797.520846 1631.335088 794.37049 1632.444668 L 789.649156 1634.109037 L 784.507774 1632.856557 C 781.071785 1632.024372 777.358565 1630.637398 773.351312 1628.695634 C 769.344059 1626.753869 762.623298 1623.416725 753.189031 1618.701012 C 743.746363 1613.976893 738.310948 1611.060043 736.882786 1609.950464 C 735.454625 1608.840884 731.808612 1606.411578 725.944749 1602.662544 C 720.080885 1598.91351 715.645184 1596.139561 712.646044 1594.332291 C 709.646905 1592.525021 703.783042 1589.053382 695.054454 1583.917374 C 686.334268 1578.781366 680.327588 1575.166826 677.034416 1573.090568 C 673.749644 1571.005903 670.313655 1568.643843 666.743251 1566.004389 C 663.164446 1563.373341 659.089986 1560.246344 654.511468 1556.631804 C 649.941351 1553.025671 643.859062 1548.09981 636.281405 1541.845816 C 628.703748 1535.600228 622.125804 1530.186825 616.547573 1525.605606 C 610.969342 1521.024388 602.82042 1514.08111 592.092406 1504.775772 C 581.364392 1495.47884 574.500816 1489.645142 571.501677 1487.283082 C 568.494136 1484.921023 561.916192 1479.373125 551.767844 1470.622577 C 541.611095 1461.880435 535.965656 1456.946169 534.823127 1455.836589 C 533.672197 1454.72701 528.598023 1449.801149 519.592204 1441.050601 C 510.577984 1432.308459 504.285673 1426.054465 500.715269 1422.305431 C 497.136464 1418.556397 489.273174 1410.226145 477.116999 1397.314674 C 464.960824 1384.403203 457.668799 1376.493245 455.240924 1373.576396 C 452.804648 1370.659547 449.234245 1366.355723 444.51291 1360.664925 C 439.791576 1354.974127 436.078356 1350.392908 433.356448 1346.921269 C 430.642941 1343.44963 427.921033 1339.835091 425.207526 1336.086057 C 422.494019 1332.337023 419.629295 1328.453494 416.630156 1324.427066 C 413.622616 1320.400637 410.909109 1316.794503 408.472833 1313.600259 C 406.044959 1310.406015 403.969924 1307.556413 402.25613 1305.059859 C 400.542336 1302.563305 398.181669 1299.293408 395.174129 1295.266979 C 392.174989 1291.24055 389.595898 1287.634416 387.453655 1284.440172 C 385.311413 1281.245928 382.446689 1277.085005 378.876285 1271.940591 C 375.29748 1266.804582 372.583973 1262.778153 370.718962 1259.86971 C 368.862352 1256.952861 365.863213 1252.371642 361.713143 1246.117648 C 357.563074 1239.87206 354.849567 1235.568237 353.564221 1233.206177 C 352.270475 1230.844118 348.700071 1224.875925 342.836208 1215.301598 C 336.972344 1205.718866 333.116308 1199.473278 331.251297 1196.556428 C 329.394687 1193.639579 324.748961 1185.653969 317.31412 1172.608003 C 309.870878 1159.553632 304.301048 1149.693504 300.579427 1143.027621 C 296.857806 1136.370144 293.573035 1130.11615 290.70831 1124.290857 C 287.851987 1118.457159 283.844734 1109.706611 278.703352 1098.04762 C 273.55357 1086.380223 270.974478 1080.41203 270.974478 1080.134635 C 270.974478 1079.85724 268.403787 1073.468752 263.254005 1060.977576 C 258.104222 1048.477994 254.10537 1038.626272 251.240645 1031.405599 C 248.384322 1024.184927 244.377069 1013.21522 239.227286 998.496479 C 234.085905 983.777738 228.936122 968.092318 223.78634 951.431813 C 218.636557 934.771308 212.91551 914.496263 206.623198 890.623491 C 200.330886 866.742313 195.903585 848.972228 193.324493 837.304831 C 190.753803 825.64584 187.174998 808.70794 182.604881 786.491132 C 178.026363 764.274323 175.304455 749.698482 174.447558 742.755204 C 173.590661 735.811926 171.734051 714.570203 168.869327 679.030033 C 166.013004 643.489864 164.156394 616.691837 163.291096 598.644357 C 162.434199 580.588472 161.434486 561.431413 160.291956 541.156368 C 159.149427 520.88973 157.578449 487.703214 155.570622 441.613633 C 153.571196 395.515646 152.571483 362.892327 152.571483 343.726862 L 152.571483 314.98707 L 155.360599 313.532848 C 157.217209 312.557763 162.291383 311.380936 170.591522 309.993962 C 178.88326 308.606988 190.325354 306.799718 204.909404 304.580559 C 219.493454 302.352994 241.663562 298.74686 271.402926 293.745346 C 301.150692 288.752238 322.455502 285.137699 335.325758 282.91854 C 348.196014 280.699381 365.21634 277.227742 386.378334 272.503623 C 407.548729 267.78791 425.8544 263.341186 441.295346 259.171856 C 456.744694 255.010933 470.043399 251.118999 481.19146 247.512865 C 492.347922 243.906732 501.068109 241.124377 507.36042 239.182613 C 513.652732 237.240848 519.659412 235.299084 525.380459 233.348914 C 531.101506 231.40715 542.543601 227.246227 559.706742 220.857738 C 576.861483 214.46925 592.949303 208.013514 607.970202 201.490532 C 622.982701 194.959143 630.988806 191.630404 631.996921 191.487504 C 632.996634 191.353009 640.21305 188.226012 653.654571 182.123325 C 667.104492 176.012231 679.252267 170.455928 690.123096 165.46282 C 700.993926 160.461306 711.713539 155.459792 722.298736 150.466684 C 732.883934 145.46517 746.039822 138.942187 761.766401 130.88933 L 785.364671 118.810043 Z M 790.942902 118.810043 " transform="matrix(0.464977,0,0,0.464703,17.378059,-24.371546)"/>
<path style="fill-rule:evenodd;fill:rgb(100%,76.469421%,0%);fill-opacity:1;stroke-width:2;stroke-linecap:butt;stroke-linejoin:miter;stroke:rgb(0%,0%,0%);stroke-opacity:1;stroke-miterlimit:4;" d="M 769.344059 132.957182 L 774.913889 132.957182 L 798.940607 145.036469 C 814.961219 153.089327 825.538016 158.368235 830.687798 160.864789 C 835.837581 163.369749 853.353563 171.489854 883.244144 185.23351 C 913.134726 198.977166 928.575673 205.920444 929.575386 206.054938 C 930.575099 206.197839 938.513997 209.45933 953.383679 215.847818 C 968.261762 222.236307 979.703857 226.95202 987.709962 230.011769 C 995.716068 233.063113 1007.300979 237.232442 1022.456293 242.502945 C 1037.620009 247.781854 1047.197092 251.110593 1051.204346 252.497567 C 1055.203198 253.892948 1060.210164 255.557317 1066.216844 257.499081 C 1072.223523 259.440845 1079.943997 261.802905 1089.386665 264.576854 C 1098.820932 267.359208 1110.834291 270.687947 1125.426742 274.579881 C 1140.010792 278.46341 1154.166394 281.935049 1167.893547 284.986393 C 1181.6207 288.046142 1190.492103 289.987907 1194.490956 290.820091 C 1198.498209 291.652276 1211.225649 294.014335 1232.673275 297.90627 C 1254.129302 301.789798 1267.570823 304.151858 1273.006238 304.984042 C 1278.441653 305.816227 1291.740357 307.900892 1312.902351 311.22963 C 1334.064346 314.566775 1344.792359 316.231144 1345.077992 316.231144 C 1345.363624 316.231144 1355.663189 318.172908 1375.968286 322.056437 C 1396.273383 325.948371 1406.49734 327.957383 1406.640156 328.100283 L 1406.858581 328.310431 L 1405.564834 390.371232 C 1404.707937 431.7451 1402.565695 485.198254 1399.129706 550.730695 C 1395.702119 616.263136 1392.980211 662.075322 1390.980785 688.184065 C 1388.981358 714.284402 1386.687899 736.635705 1384.117208 755.237974 C 1381.546517 773.848649 1378.538977 791.475834 1375.111389 808.136339 C 1371.6754 824.796844 1367.953779 841.600249 1363.954927 858.538149 C 1359.947674 875.476049 1356.37727 890.329284 1353.226913 903.106261 C 1350.084958 915.874832 1346.363337 929.618488 1342.078852 944.337228 C 1337.785967 959.055969 1335.206875 967.941012 1334.349978 970.992355 C 1333.493081 974.052105 1332.207736 977.935633 1330.493942 982.659752 C 1328.771747 987.375466 1326.772321 993.209164 1324.487262 1000.152442 C 1322.193803 1007.09572 1318.623399 1017.090342 1313.759248 1030.136308 C 1308.895098 1043.190679 1304.896246 1053.605596 1301.745889 1061.381059 C 1298.603934 1069.156522 1294.739497 1078.453454 1290.160979 1089.288666 C 1285.590862 1100.115473 1279.726998 1113.169844 1272.57779 1128.443375 C 1265.42018 1143.708499 1261.135695 1152.593542 1259.707534 1155.098502 C 1258.270971 1157.595056 1253.053981 1166.690246 1244.048162 1182.375666 C 1235.033942 1198.069491 1229.598527 1207.366423 1227.741917 1210.283272 C 1225.885307 1213.200122 1221.449605 1220.563695 1214.443213 1232.357181 C 1207.43682 1244.159072 1202.858302 1251.65714 1200.71606 1254.851384 C 1198.573817 1258.045628 1195.280645 1263.047142 1190.844943 1269.84752 C 1186.417642 1276.647898 1182.838837 1281.926807 1180.12533 1285.67584 C 1177.403422 1289.424874 1174.261467 1293.871598 1170.682662 1299.007607 C 1167.112258 1304.143615 1163.67627 1308.859328 1160.391498 1313.163152 C 1157.098325 1317.475382 1154.527635 1321.081515 1152.671024 1323.998364 C 1150.806013 1326.915214 1148.092507 1330.664248 1144.513702 1335.245466 C 1140.943298 1339.826685 1137.507309 1344.407903 1134.222537 1348.989122 C 1130.929365 1353.570341 1127.358961 1358.29446 1123.494524 1363.153073 C 1119.630087 1368.011687 1116.345315 1372.17261 1113.623407 1375.644249 C 1110.9099 1379.115888 1105.121645 1385.714524 1096.250242 1395.431751 C 1087.387239 1405.148978 1076.944858 1416.253179 1064.931498 1428.752761 C 1052.918139 1441.252343 1042.341343 1451.936249 1033.184307 1460.821291 C 1024.035672 1469.714739 1017.953384 1475.329884 1014.954245 1477.691944 C 1011.946704 1480.054003 1004.940312 1486.022196 993.926666 1495.604929 C 982.921421 1505.187661 976.20066 1511.012954 973.764385 1513.097619 C 971.33651 1515.182283 965.329831 1520.318292 955.744346 1528.505644 C 946.167263 1536.701402 939.874951 1541.980311 936.867411 1544.333964 C 933.868271 1546.696024 930.432283 1549.478378 926.576246 1552.664217 C 922.711809 1555.858461 917.352003 1560.237938 910.488426 1565.785835 C 903.62485 1571.342139 898.399459 1575.435815 894.829055 1578.07527 C 891.25025 1580.714724 887.822662 1583.076783 884.52949 1585.153042 C 881.244718 1587.237707 875.238038 1590.84384 866.509451 1595.988255 C 857.789264 1601.124263 852.068217 1604.595902 849.35471 1606.394766 C 846.632802 1608.202036 843.558054 1610.076553 840.130467 1612.018317 C 836.694478 1613.968487 833.124074 1616.187646 829.402453 1618.6842 C 825.680832 1621.180754 822.967325 1622.988024 821.253531 1624.097603 C 819.531336 1625.207183 815.818116 1627.157353 810.097069 1629.931302 C 804.376022 1632.705251 797.512445 1635.899495 789.50634 1639.514034 C 781.500234 1643.120168 775.922003 1645.482227 772.771646 1646.591807 L 768.050312 1648.256176 L 762.908931 1647.012102 C 759.472942 1646.179917 755.751321 1644.784537 751.752468 1642.842773 C 747.745215 1640.901009 741.024455 1637.563864 731.590188 1632.848151 C 722.147519 1628.124032 716.712104 1625.207183 715.283943 1624.097603 C 713.855781 1622.988024 710.209769 1620.558717 704.345905 1616.809683 C 698.482042 1613.060649 694.04634 1610.2867 691.047201 1608.47943 C 688.039661 1606.672161 682.175797 1603.208928 673.455611 1598.064513 C 664.735424 1592.928505 658.728745 1589.322371 655.435572 1587.237707 C 652.150801 1585.153042 648.714812 1582.790983 645.144408 1580.159934 C 641.565603 1577.52048 637.491142 1574.393483 632.912624 1570.787349 C 628.334106 1567.17281 622.260219 1562.246949 614.682562 1556.001361 C 607.104904 1549.747367 600.52696 1544.333964 594.948729 1539.752746 C 589.370498 1535.171527 581.221576 1528.228249 570.493563 1518.931317 C 559.765549 1509.62598 552.901972 1503.792281 549.902833 1501.438627 C 546.895293 1499.076568 540.317349 1493.520264 530.169001 1484.778122 C 520.012252 1476.027575 514.366813 1471.101714 513.224284 1469.992134 C 512.073354 1468.874149 506.999179 1463.948288 497.993361 1455.206146 C 488.979141 1446.455598 482.686829 1440.210011 479.116425 1436.460977 C 475.53762 1432.711943 467.674331 1424.38169 455.518155 1411.470219 C 443.36198 1398.558748 436.069955 1390.640385 433.63368 1387.723535 C 431.205805 1384.806686 427.635401 1380.502862 422.914067 1374.812064 C 418.192733 1369.121266 414.471112 1364.540048 411.757605 1361.068409 C 409.044098 1357.596769 406.32219 1353.990636 403.608683 1350.241602 C 400.886775 1346.492568 398.030452 1342.600634 395.022912 1338.574205 C 392.023772 1334.547776 389.310265 1330.941643 386.87399 1327.747398 C 384.446115 1324.553154 382.37108 1321.711958 380.657286 1319.206998 C 378.935092 1316.710444 376.582825 1313.448953 373.575285 1309.422524 C 370.576146 1305.396095 367.997054 1301.781556 365.854812 1298.587312 C 363.712569 1295.401473 360.847845 1291.232144 357.277441 1286.096136 C 353.698637 1280.960127 350.98513 1276.933699 349.120119 1274.016849 C 347.263509 1271.1 344.255968 1266.518781 340.1143 1260.273193 C 335.96423 1254.0192 333.250723 1249.715376 331.965378 1247.361722 C 330.671632 1244.999663 327.101228 1239.03147 321.237364 1229.448737 C 315.373501 1219.866005 311.509064 1213.620417 309.652454 1210.703568 C 307.795844 1207.786718 303.150118 1199.809514 295.706876 1186.755142 C 288.272035 1173.700771 282.693804 1163.849049 278.980584 1157.183166 C 275.258963 1150.517283 271.974191 1144.271695 269.109467 1138.437997 C 266.253144 1132.604298 262.245891 1123.862156 257.096108 1112.194759 C 251.954726 1100.535768 249.375634 1094.567575 249.375634 1094.29018 C 249.375634 1094.012785 246.804944 1087.624297 241.655161 1075.124715 C 236.505378 1062.633539 232.506526 1052.773412 229.641802 1045.552739 C 226.785479 1038.332066 222.778226 1027.362359 217.628443 1012.652024 C 212.47866 997.933283 207.337279 982.239457 202.187496 965.578952 C 197.037713 948.918447 191.316666 928.651808 185.024354 904.77063 C 178.732043 880.889452 174.296341 863.119368 171.72565 851.451971 C 169.154959 839.792979 165.576154 822.85508 160.997636 800.638271 C 156.427519 778.429868 153.705611 763.845622 152.848714 756.902344 C 151.991817 749.967471 150.135207 728.717342 147.270483 693.177173 C 144.41416 657.637003 142.549149 630.838976 141.692252 612.791497 C 140.835355 594.744017 139.835642 575.578552 138.693113 555.311913 C 137.550584 535.036869 135.971205 501.858759 133.971779 455.760772 C 131.972353 409.671192 130.97264 377.039466 130.97264 357.882407 L 130.97264 329.142615 L 133.761755 327.679988 C 135.618365 326.713308 140.692539 325.528076 148.984277 324.141101 C 157.284416 322.754127 168.726511 320.946857 183.310561 318.727698 C 197.89461 316.508539 220.064719 312.894 249.804083 307.900892 C 279.551848 302.899378 300.856659 299.293244 313.726915 297.065679 C 326.597171 294.84652 343.617496 291.374881 364.77949 286.650762 C 385.949885 281.935049 404.255556 277.488325 419.696503 273.327401 C 435.13745 269.158072 448.436154 265.274544 459.592616 261.660004 C 470.749079 258.053871 479.469265 255.279922 485.761577 253.329752 C 492.053889 251.387988 498.060568 249.446223 503.781615 247.504459 C 509.502663 245.554289 520.944757 241.393366 538.107899 235.004877 C 555.26264 228.616389 571.35046 222.160654 586.371359 215.637671 C 601.383857 209.114688 609.389963 205.777543 610.389676 205.643049 C 611.39779 205.500149 618.614207 202.381558 632.055727 196.270464 C 645.497248 190.159371 657.653423 184.603067 668.524253 179.609959 C 679.395083 174.608445 690.114695 169.615337 700.699893 164.613823 C 711.28509 159.612309 724.440979 153.089327 740.167558 145.036469 L 763.765828 132.957182 Z M 769.344059 132.957182 " transform="matrix(0.464977,0,0,0.464703,17.378059,-24.371546)"/>
<g clip-path="url(#clip1)" clip-rule="nonzero">
<path style=" stroke:none;fill-rule:evenodd;fill:rgb(0%,0%,0%);fill-opacity:1;" d="M 384.253906 3.792969 L 387.054688 3.792969 L 399.109375 9.851562 C 407.148438 13.890625 412.457031 16.539062 415.042969 17.792969 C 417.625 19.046875 426.417969 23.121094 441.417969 30.015625 C 456.417969 36.910156 464.167969 40.390625 464.667969 40.460938 C 465.171875 40.53125 469.15625 42.167969 476.617188 45.371094 C 484.082031 48.574219 489.824219 50.941406 493.84375 52.472656 C 497.859375 54.003906 503.675781 56.09375 511.28125 58.742188 C 518.890625 61.386719 523.699219 63.058594 525.707031 63.753906 C 527.714844 64.453125 530.230469 65.289062 533.242188 66.261719 C 536.257812 67.238281 540.132812 68.421875 544.871094 69.816406 C 549.605469 71.207031 555.632812 72.878906 562.953125 74.828125 C 570.273438 76.777344 577.378906 78.519531 584.269531 80.050781 C 591.160156 81.585938 595.609375 82.558594 597.617188 82.976562 C 599.628906 83.394531 606.015625 84.578125 616.78125 86.527344 C 627.542969 88.480469 634.292969 89.664062 637.019531 90.082031 C 639.746094 90.5 646.417969 91.542969 657.042969 93.214844 C 667.664062 94.886719 673.046875 95.722656 673.1875 95.722656 C 673.332031 95.722656 678.5 96.695312 688.691406 98.644531 C 698.882812 100.597656 704.011719 101.605469 704.085938 101.675781 L 704.191406 101.78125 L 703.546875 132.910156 C 703.117188 153.664062 702.039062 180.472656 700.316406 213.34375 C 698.59375 246.214844 697.230469 269.195312 696.226562 282.289062 C 695.222656 295.382812 694.074219 306.59375 692.78125 315.925781 C 691.488281 325.257812 689.984375 334.101562 688.261719 342.457031 C 686.539062 350.816406 684.671875 359.242188 682.664062 367.738281 C 680.652344 376.234375 678.859375 383.683594 677.28125 390.09375 C 675.699219 396.5 673.835938 403.394531 671.683594 410.777344 C 669.527344 418.15625 668.238281 422.613281 667.804688 424.148438 C 667.375 425.679688 666.730469 427.628906 665.867188 429.996094 C 665.007812 432.363281 664.003906 435.289062 662.855469 438.773438 C 661.707031 442.253906 659.914062 447.269531 657.472656 453.8125 C 655.03125 460.359375 653.023438 465.582031 651.445312 469.484375 C 649.863281 473.382812 647.925781 478.050781 645.628906 483.480469 C 643.332031 488.914062 640.390625 495.460938 636.804688 503.121094 C 633.214844 510.78125 631.0625 515.238281 630.34375 516.492188 C 629.625 517.746094 627.007812 522.304688 622.484375 530.175781 C 617.964844 538.042969 615.238281 542.710938 614.304688 544.171875 C 613.371094 545.636719 611.144531 549.328125 607.628906 555.246094 C 604.113281 561.164062 601.816406 564.925781 600.738281 566.527344 C 599.664062 568.128906 598.011719 570.636719 595.789062 574.050781 C 593.5625 577.460938 591.769531 580.109375 590.40625 581.988281 C 589.042969 583.867188 587.464844 586.097656 585.667969 588.675781 C 583.875 591.25 582.152344 593.617188 580.5 595.777344 C 578.851562 597.9375 577.558594 599.746094 576.625 601.210938 C 575.691406 602.671875 574.328125 604.550781 572.535156 606.851562 C 570.742188 609.148438 569.019531 611.445312 567.367188 613.746094 C 565.71875 616.042969 563.921875 618.410156 561.984375 620.847656 C 560.046875 623.285156 558.398438 625.375 557.035156 627.117188 C 555.667969 628.855469 552.761719 632.164062 548.3125 637.039062 C 543.863281 641.914062 538.625 647.484375 532.597656 653.753906 C 526.566406 660.023438 521.257812 665.382812 516.664062 669.839844 C 512.070312 674.296875 509.019531 677.117188 507.515625 678.300781 C 506.007812 679.484375 502.488281 682.480469 496.964844 687.285156 C 491.4375 692.089844 488.066406 695.015625 486.84375 696.058594 C 485.625 697.105469 482.609375 699.683594 477.800781 703.789062 C 472.996094 707.898438 469.835938 710.546875 468.328125 711.730469 C 466.820312 712.914062 465.101562 714.304688 463.160156 715.910156 C 461.222656 717.511719 458.53125 719.703125 455.089844 722.488281 C 451.644531 725.273438 449.023438 727.328125 447.230469 728.652344 C 445.433594 729.976562 443.714844 731.160156 442.0625 732.203125 C 440.410156 733.25 437.398438 735.058594 433.019531 737.636719 C 428.640625 740.214844 425.769531 741.953125 424.40625 742.859375 C 423.042969 743.765625 421.5 744.707031 419.777344 745.679688 C 418.054688 746.65625 416.261719 747.769531 414.394531 749.023438 C 412.53125 750.277344 411.164062 751.183594 410.304688 751.738281 C 409.445312 752.296875 407.578125 753.269531 404.707031 754.664062 C 401.835938 756.058594 398.390625 757.660156 394.371094 759.46875 C 390.351562 761.28125 387.554688 762.464844 385.976562 763.019531 L 383.609375 763.855469 L 381.023438 763.230469 C 379.300781 762.8125 377.433594 762.117188 375.425781 761.140625 C 373.417969 760.164062 370.042969 758.492188 365.304688 756.125 C 360.570312 753.757812 357.84375 752.296875 357.125 751.738281 C 356.40625 751.183594 354.578125 749.964844 351.636719 748.082031 C 348.691406 746.203125 346.46875 744.808594 344.960938 743.902344 C 343.453125 743 340.511719 741.257812 336.132812 738.679688 C 331.753906 736.105469 328.742188 734.292969 327.089844 733.25 C 325.441406 732.203125 323.71875 731.019531 321.921875 729.695312 C 320.128906 728.375 318.082031 726.808594 315.785156 724.996094 C 313.492188 723.1875 310.441406 720.714844 306.636719 717.578125 C 302.832031 714.445312 299.53125 711.730469 296.734375 709.429688 C 293.933594 707.132812 289.84375 703.652344 284.460938 698.984375 C 279.078125 694.320312 275.632812 691.394531 274.125 690.210938 C 272.617188 689.027344 269.316406 686.242188 264.222656 681.851562 C 259.125 677.464844 256.292969 674.992188 255.71875 674.4375 C 255.144531 673.878906 252.59375 671.40625 248.074219 667.019531 C 243.554688 662.632812 240.394531 659.5 238.601562 657.617188 C 236.808594 655.738281 232.859375 651.558594 226.757812 645.082031 C 220.660156 638.605469 217 634.636719 215.777344 633.175781 C 214.558594 631.710938 212.765625 629.554688 210.394531 626.699219 C 208.027344 623.84375 206.160156 621.542969 204.796875 619.804688 C 203.433594 618.0625 202.070312 616.253906 200.707031 614.371094 C 199.34375 612.492188 197.910156 610.542969 196.402344 608.523438 C 194.894531 606.503906 193.53125 604.691406 192.3125 603.089844 C 191.089844 601.488281 190.050781 600.0625 189.1875 598.808594 C 188.328125 597.554688 187.144531 595.917969 185.636719 593.898438 C 184.128906 591.878906 182.835938 590.066406 181.761719 588.464844 C 180.683594 586.863281 179.25 584.773438 177.457031 582.199219 C 175.660156 579.621094 174.296875 577.601562 173.363281 576.140625 C 172.429688 574.675781 170.925781 572.378906 168.84375 569.246094 C 166.761719 566.109375 165.398438 563.953125 164.753906 562.769531 C 164.105469 561.585938 162.3125 558.589844 159.371094 553.785156 C 156.425781 548.980469 154.488281 545.84375 153.554688 544.382812 C 152.625 542.921875 150.292969 538.917969 146.558594 532.371094 C 142.828125 525.824219 140.027344 520.878906 138.164062 517.535156 C 136.296875 514.195312 134.644531 511.058594 133.210938 508.136719 C 131.773438 505.210938 129.765625 500.824219 127.183594 494.972656 C 124.597656 489.125 123.308594 486.128906 123.308594 485.988281 C 123.308594 485.851562 122.015625 482.644531 119.429688 476.378906 C 116.847656 470.109375 114.839844 465.167969 113.402344 461.542969 C 111.96875 457.921875 109.957031 452.421875 107.375 445.039062 C 104.789062 437.65625 102.207031 429.789062 99.625 421.429688 C 97.039062 413.074219 94.167969 402.90625 91.011719 390.929688 C 87.855469 378.949219 85.628906 370.035156 84.335938 364.1875 C 83.046875 358.335938 81.25 349.839844 78.953125 338.699219 C 76.65625 327.554688 75.292969 320.242188 74.863281 316.761719 C 74.433594 313.277344 73.5 302.625 72.066406 284.796875 C 70.628906 266.96875 69.695312 253.527344 69.265625 244.472656 C 68.835938 235.417969 68.332031 225.808594 67.757812 215.640625 C 67.183594 205.472656 66.394531 188.828125 65.390625 165.710938 C 64.386719 142.589844 63.882812 126.222656 63.882812 116.613281 L 63.882812 102.199219 L 65.28125 101.464844 C 66.214844 100.980469 68.761719 100.386719 72.925781 99.691406 C 77.089844 98.992188 82.828125 98.089844 90.148438 96.972656 C 97.46875 95.859375 108.59375 94.050781 123.523438 91.542969 C 138.449219 89.035156 149.144531 87.226562 155.601562 86.109375 C 162.0625 84.996094 170.601562 83.253906 181.222656 80.886719 C 191.84375 78.519531 201.03125 76.289062 208.78125 74.203125 C 216.53125 72.113281 223.207031 70.164062 228.804688 68.351562 C 234.402344 66.542969 238.78125 65.148438 241.9375 64.171875 C 245.097656 63.199219 248.109375 62.222656 250.980469 61.25 C 253.851562 60.273438 259.59375 58.183594 268.207031 54.980469 C 276.816406 51.777344 284.890625 48.539062 292.425781 45.265625 C 299.960938 41.992188 303.980469 40.320312 304.484375 40.25 C 304.984375 40.183594 308.609375 38.613281 315.355469 35.550781 C 322.101562 32.484375 328.203125 29.699219 333.65625 27.195312 C 339.113281 24.6875 344.492188 22.179688 349.804688 19.671875 C 355.117188 17.164062 361.71875 13.890625 369.613281 9.851562 L 381.453125 3.792969 Z M 384.253906 3.792969 "/>
</g>
<g clip-path="url(#clip2)" clip-rule="nonzero">
<path style="fill:none;stroke-width:2;stroke-linecap:butt;stroke-linejoin:miter;stroke:rgb(0%,0%,0%);stroke-opacity:1;stroke-miterlimit:4;" d="M 789.019084 60.607552 L 795.042566 60.607552 L 820.967899 73.645112 C 838.257055 82.336818 849.673946 88.036023 855.235376 90.734318 C 860.788404 93.432614 879.698943 102.199974 911.958593 117.036397 C 944.218242 131.872821 960.885728 139.362483 961.961049 139.513789 C 963.044772 139.665095 971.613741 143.18717 987.659557 150.080012 C 1003.713773 156.972855 1016.06317 162.066834 1024.707748 165.361949 C 1033.343925 168.657064 1045.85294 173.154223 1062.209591 178.853428 C 1078.574642 184.544226 1088.916212 188.141953 1093.2343 189.638205 C 1097.552389 191.142862 1102.962601 192.941725 1109.439734 195.034796 C 1115.925267 197.136272 1124.25901 199.683262 1134.449363 202.68417 C 1144.631315 205.676673 1157.593981 209.2744 1173.337362 213.468947 C 1189.080744 217.663494 1204.362072 221.412528 1219.181349 224.707643 C 1234.000625 228.011164 1243.569308 230.104234 1247.887396 231.003666 C 1252.213886 231.903098 1265.94944 234.450088 1289.102459 238.644635 C 1312.247077 242.847587 1326.76392 245.394577 1332.627783 246.294009 C 1338.491646 247.193441 1352.84047 249.437818 1375.691055 253.035545 C 1398.533239 256.633273 1410.109749 258.432137 1410.412183 258.432137 C 1410.723018 258.432137 1421.837475 260.525207 1443.755555 264.719754 C 1465.673635 268.922707 1476.704082 271.091431 1476.8637 271.242737 L 1477.090526 271.469696 L 1475.704369 338.456359 C 1474.780265 383.116936 1472.461602 440.806666 1468.756783 511.542363 C 1465.051964 582.278059 1462.120033 631.730002 1459.960988 659.906598 C 1457.801944 688.083194 1455.332065 712.208143 1452.55135 732.289852 C 1449.770635 752.37156 1446.53627 771.402531 1442.83145 789.382763 C 1439.126631 807.371401 1435.110977 825.50294 1430.792888 843.785785 C 1426.466399 862.06863 1422.610363 878.098692 1419.216379 891.892783 C 1415.813994 905.678468 1411.806741 920.514892 1407.177817 936.402053 C 1402.540492 952.280809 1399.768179 961.871948 1398.835673 965.175469 C 1397.911569 968.470584 1396.525412 972.665131 1394.668802 977.759109 C 1392.820593 982.853088 1390.661548 989.149112 1388.191669 996.647179 C 1385.72179 1004.136841 1381.865753 1014.930024 1376.615159 1029.009916 C 1371.364565 1043.098214 1367.046477 1054.33691 1363.652493 1062.73441 C 1360.250108 1071.123504 1356.083237 1081.168561 1351.143478 1092.85277 C 1346.203719 1104.545385 1339.877803 1118.633683 1332.165731 1135.117664 C 1324.445257 1151.601645 1319.816334 1161.192783 1318.270559 1163.891079 C 1316.724784 1166.589375 1311.096147 1176.399067 1301.367847 1193.336967 C 1291.647947 1210.266461 1285.784084 1220.311518 1283.776256 1223.455327 C 1281.768429 1226.607541 1276.979888 1234.551122 1269.419032 1247.286069 C 1261.858177 1260.021016 1256.918418 1268.115903 1254.599756 1271.562325 C 1252.289494 1275.008746 1248.735892 1280.405338 1243.955752 1287.752099 C 1239.16721 1295.090455 1235.311174 1300.789659 1232.379242 1304.8329 C 1229.44731 1308.87614 1226.053326 1313.675912 1222.188889 1319.22381 C 1218.332853 1324.763302 1214.628034 1329.857281 1211.074432 1334.505747 C 1207.529231 1339.154212 1204.748516 1343.046147 1202.740689 1346.198361 C 1200.732862 1349.34217 1197.80093 1353.385411 1193.944894 1358.336489 C 1190.088858 1363.279162 1186.384038 1368.221834 1182.830436 1373.172913 C 1179.285235 1378.115585 1175.420798 1383.209564 1171.253927 1388.454849 C 1167.087055 1393.700134 1163.541854 1398.197294 1160.609923 1401.946328 C 1157.66959 1405.686956 1151.419283 1412.806758 1141.8506 1423.297328 C 1132.281918 1433.787899 1121.016243 1445.77472 1108.053577 1459.266199 C 1095.082509 1472.757677 1083.665618 1484.29058 1073.7861 1493.881718 C 1063.906583 1503.472857 1057.34544 1509.541921 1054.111074 1512.08891 C 1050.868308 1514.635899 1043.299051 1521.083229 1031.420107 1531.422493 C 1019.532763 1541.761757 1012.282742 1548.05778 1009.653245 1550.302157 C 1007.032148 1552.55494 1000.546615 1558.102838 990.205045 1566.937445 C 979.871876 1575.780457 973.075507 1581.479661 969.83274 1584.026651 C 966.589973 1586.57364 962.893555 1589.566143 958.718283 1593.02097 C 954.551411 1596.467391 948.763156 1601.183104 941.361919 1607.176515 C 933.952281 1613.169926 928.315243 1617.591432 924.459207 1620.441034 C 920.59477 1623.290636 916.898351 1625.837626 913.344749 1628.082002 C 909.791147 1630.334785 903.314015 1634.22672 893.896549 1639.774617 C 884.479084 1645.322515 878.304385 1649.063143 875.372454 1651.013313 C 872.440522 1652.963483 869.122147 1654.989307 865.417327 1657.082377 C 861.712508 1659.183854 857.856472 1661.579537 853.840818 1664.277832 C 849.833564 1666.976128 846.893232 1668.926298 845.045023 1670.119937 C 843.196814 1671.321981 839.181159 1673.415052 833.006461 1676.41596 C 826.831762 1679.416868 819.422124 1682.86329 810.777546 1686.755224 C 802.132968 1690.655564 796.117888 1693.202554 792.723904 1694.396192 L 787.632928 1696.195056 L 782.071498 1694.850111 C 778.366679 1693.950679 774.351025 1692.454428 770.032937 1690.352952 C 765.714848 1688.251475 758.456427 1684.653748 748.266074 1679.559769 C 738.084122 1674.46579 732.220259 1671.321981 730.674484 1670.119937 C 729.128709 1668.926298 725.197064 1666.303656 718.871149 1662.252009 C 712.536832 1658.208768 707.756691 1655.20786 704.513924 1653.25769 C 701.271158 1651.315926 694.945242 1647.566892 685.527776 1642.018994 C 676.110311 1636.479502 669.633178 1632.579162 666.079576 1630.334785 C 662.534375 1628.082002 658.829556 1625.535013 654.965119 1622.685411 C 651.109083 1619.844215 646.706985 1616.473447 641.767226 1612.573107 C 636.835868 1608.681172 630.274726 1603.360234 622.0922 1596.610292 C 613.909674 1589.868755 606.810871 1584.026651 600.795791 1579.075572 C 594.772309 1574.1329 585.976514 1566.643238 574.400005 1556.598181 C 562.823495 1546.561529 555.413857 1540.265506 552.17109 1537.718516 C 548.928323 1535.171527 541.82952 1529.178116 530.874681 1519.729878 C 519.91144 1510.290046 513.820751 1504.969108 512.585812 1503.775469 C 511.350872 1502.573425 505.865051 1497.252486 496.145152 1487.812654 C 486.425252 1478.372822 479.628883 1471.631286 475.772847 1467.579639 C 471.916811 1463.536399 463.42345 1454.54208 450.301165 1440.605088 C 437.187282 1426.668096 429.315591 1418.127696 426.686094 1414.983888 C 424.064997 1411.831673 420.208961 1407.191613 415.109584 1401.046896 C 410.018608 1394.902179 406.002954 1389.9511 403.071022 1386.210472 C 400.13909 1382.461438 397.207159 1378.569504 394.275227 1374.517858 C 391.343295 1370.474617 388.260147 1366.28007 385.01738 1361.934217 C 381.774613 1357.588364 378.842681 1353.688023 376.221585 1350.241602 C 373.592087 1346.795181 371.357434 1343.727025 369.500824 1341.028729 C 367.652615 1338.330434 365.107127 1334.808359 361.86436 1330.462506 C 358.621594 1326.116653 355.840879 1322.216312 353.530618 1318.769891 C 351.211955 1315.32347 348.128806 1310.82631 344.27277 1305.286818 C 340.408333 1299.738921 337.476401 1295.393067 335.468574 1292.249259 C 333.460747 1289.097044 330.226381 1284.154372 325.748675 1277.412835 C 321.270968 1270.662893 318.339036 1266.022833 316.95288 1263.475844 C 315.558322 1260.928854 311.702286 1254.481524 305.37637 1244.14226 C 299.042053 1233.802996 294.875182 1227.053054 292.867355 1223.909246 C 290.867929 1220.765437 285.852561 1212.149383 277.821253 1198.061086 C 269.798345 1183.972788 263.774863 1173.330911 259.76761 1166.135456 C 255.751956 1158.948406 252.198354 1152.198464 249.115205 1145.910847 C 246.023655 1139.614823 241.705567 1130.174991 236.152539 1117.582945 C 230.591109 1104.999304 227.818796 1098.551974 227.818796 1098.249361 C 227.818796 1097.955155 225.038081 1091.053906 219.476652 1077.570833 C 213.923624 1064.079355 209.605535 1053.445884 206.513986 1045.645204 C 203.430837 1037.852929 199.104347 1026.017414 193.551319 1010.130252 C 187.98989 994.24309 182.436862 977.313596 176.883833 959.324958 C 171.322404 941.344726 165.147706 919.464154 158.359738 893.691647 C 151.57177 867.910734 146.783228 848.728457 144.002514 836.144816 C 141.2302 823.55277 137.365763 805.269925 132.426004 781.296282 C 127.486245 757.314233 124.554313 741.578377 123.630209 734.088716 C 122.706104 726.590648 120.698277 703.667743 117.615128 665.303189 C 114.523579 626.938636 112.515752 598.013914 111.591647 578.529025 C 110.667542 559.044136 109.58382 538.365608 108.34888 516.485035 C 107.11394 494.604463 105.416948 458.786899 103.257904 409.040749 C 101.09886 359.286193 100.015137 324.065448 100.015137 303.38692 L 100.015137 272.369128 L 103.022678 270.788818 C 105.030505 269.746486 110.507924 268.468788 119.463337 266.972537 C 128.418751 265.46788 140.759747 263.526115 156.503128 261.122026 C 172.246509 258.726343 196.172416 254.834409 228.280848 249.437818 C 260.38088 244.041226 283.382682 240.149292 297.269453 237.745203 C 311.164625 235.34952 329.529102 231.600486 352.371286 226.506507 C 375.213471 221.412528 394.972506 216.612756 411.639991 212.124002 C 428.307477 207.626843 442.664701 203.432296 454.703263 199.531955 C 466.741825 195.640021 476.159291 192.639113 482.947258 190.537636 C 489.743627 188.444566 496.22076 186.343089 502.395459 184.250019 C 508.570157 182.148543 520.919554 177.651383 539.44365 170.75854 C 557.959345 163.865698 575.324109 156.897202 591.529542 149.853053 C 607.734976 142.808904 616.379554 139.211176 617.463276 139.05987 C 618.538598 138.91697 626.33468 135.537796 640.843121 128.947565 C 655.351563 122.34893 668.473847 116.355519 680.201574 110.967333 C 691.937702 105.570742 703.50581 100.17415 714.931103 94.777559 C 726.356395 89.380967 740.554002 82.336818 757.532322 73.645112 L 782.995603 60.607552 Z M 789.019084 60.607552 " transform="matrix(0.464977,0,0,0.464703,17.378059,-24.371546)"/>
</g>
<path style="fill-rule:evenodd;fill:rgb(100%,76.469421%,0%);fill-opacity:1;stroke-width:2;stroke-linecap:butt;stroke-linejoin:miter;stroke:rgb(0%,0%,0%);stroke-opacity:1;stroke-miterlimit:4;" d="M 791.556171 125.559985 L 797.134403 125.559985 L 821.161121 137.639272 C 837.181733 145.69213 847.75853 150.971038 852.908312 153.467592 C 858.058095 155.964146 875.574076 164.084251 905.464658 177.836313 C 935.355239 191.579969 950.796186 198.523247 951.795899 198.657741 C 952.795613 198.800642 960.734511 202.062133 975.604193 208.450621 C 990.482276 214.830704 1001.92437 219.554823 1009.930476 222.606167 C 1017.936582 225.665916 1029.521493 229.82684 1044.676807 235.105748 C 1059.840523 240.384657 1069.417606 243.713396 1073.424859 245.10037 C 1077.423712 246.487345 1082.430678 248.16012 1088.437358 250.101884 C 1094.444037 252.043648 1102.164511 254.405708 1111.607179 257.179657 C 1121.041446 259.953606 1133.054805 263.29075 1147.647256 267.174279 C 1162.231306 271.066213 1176.386907 274.537852 1190.11406 277.589196 C 1203.841213 280.640539 1212.712617 282.59071 1216.711469 283.422894 C 1220.718723 284.255079 1233.446163 286.617138 1254.893789 290.500667 C 1276.349816 294.392601 1289.791337 296.746255 1295.226752 297.586845 C 1300.653766 298.41903 1313.960871 300.495289 1335.122865 303.832433 C 1356.284859 307.161172 1367.012873 308.825541 1367.298505 308.825541 C 1367.584138 308.825541 1377.883703 310.775711 1398.1888 314.65924 C 1418.493897 318.551174 1428.717854 320.560186 1428.86067 320.703086 L 1429.070694 320.904828 L 1427.785348 382.974035 C 1426.928451 424.347903 1424.786209 477.801057 1421.35022 543.333498 C 1417.922632 608.865939 1415.200725 654.678125 1413.201298 680.778462 C 1411.201872 706.878799 1408.908413 729.238508 1406.337722 747.840777 C 1403.767031 766.443046 1400.759491 784.078637 1397.331903 800.739142 C 1393.895914 817.399647 1390.174293 834.194646 1386.175441 851.132546 C 1382.168188 868.070446 1378.597784 882.932087 1375.447427 895.700658 C 1372.305472 908.477635 1368.583851 922.221291 1364.290965 936.940031 C 1360.00648 951.658772 1357.427389 960.543815 1356.570492 963.595158 C 1355.713595 966.646502 1354.428249 970.538436 1352.714455 975.25415 C 1350.992261 979.978269 1348.992834 985.811967 1346.707776 992.755245 C 1344.414316 999.690117 1340.843913 1009.693145 1335.979762 1022.739111 C 1331.115612 1035.793482 1327.11676 1046.199993 1323.966403 1053.975456 C 1320.824448 1061.750919 1316.960011 1071.056257 1312.381493 1081.883063 C 1307.811376 1092.718276 1301.947512 1105.764241 1294.789902 1121.037772 C 1287.640694 1136.311302 1283.356209 1145.196345 1281.928047 1147.692899 C 1280.491485 1150.197859 1275.274495 1159.293049 1266.268676 1174.978469 C 1257.254456 1190.663889 1251.819041 1199.969226 1249.962431 1202.886075 C 1248.105821 1205.802925 1243.670119 1213.158092 1236.663727 1224.959984 C 1229.657334 1236.761875 1225.078816 1244.259943 1222.936574 1247.454187 C 1220.794331 1250.648431 1217.501159 1255.641539 1213.065457 1262.450323 C 1208.638156 1269.250701 1205.059351 1274.52961 1202.345844 1278.278643 C 1199.623936 1282.027677 1196.481981 1286.465996 1192.903176 1291.602004 C 1189.332772 1296.746418 1185.896783 1301.462131 1182.612012 1305.765955 C 1179.318839 1310.069779 1176.748148 1313.684318 1174.883137 1316.601167 C 1173.026527 1319.509611 1170.31302 1323.258645 1166.734215 1327.839863 C 1163.163812 1332.421082 1159.727823 1337.002301 1156.443051 1341.591925 C 1153.149879 1346.173144 1149.579475 1350.888857 1145.715038 1355.74747 C 1141.8506 1360.606084 1138.565829 1364.775413 1135.843921 1368.247052 C 1133.130414 1371.718691 1127.342159 1378.308921 1118.470755 1388.034554 C 1109.607753 1397.751781 1099.165371 1408.855982 1087.152012 1421.355564 C 1075.138653 1433.84674 1064.561857 1444.539052 1055.404821 1453.424094 C 1046.256186 1462.309137 1040.173898 1467.932687 1037.174758 1470.294747 C 1034.167218 1472.656806 1027.160825 1478.624999 1016.14718 1488.207732 C 1005.141934 1497.782059 998.421174 1503.615757 995.984899 1505.700422 C 993.557024 1507.77668 987.550344 1512.921095 977.96486 1521.108447 C 968.387776 1529.304205 962.095465 1534.574708 959.087924 1536.936767 C 956.088785 1539.298827 952.652796 1542.072776 948.79676 1545.26702 C 944.932323 1548.461264 939.572517 1552.832335 932.70894 1558.388638 C 925.845364 1563.944942 920.619972 1568.038618 917.049569 1570.678073 C 913.470764 1573.309121 910.043176 1575.671181 906.750003 1577.755845 C 903.465232 1579.84051 897.458552 1583.446643 888.729965 1588.582652 C 880.009778 1593.71866 874.288731 1597.190299 871.575224 1598.997569 C 868.853316 1600.804839 865.778568 1602.679356 862.350981 1604.62112 C 858.914992 1606.562884 855.344588 1608.790449 851.622967 1611.287003 C 847.901346 1613.783557 845.187839 1615.590827 843.474045 1616.700406 C 841.75185 1617.809986 838.03863 1619.75175 832.317583 1622.534105 C 826.596536 1625.308054 819.732959 1628.502298 811.726853 1632.108431 C 803.712347 1635.722971 798.142517 1638.08503 794.99216 1639.19461 L 790.270826 1640.858979 L 785.121043 1639.606499 C 781.693456 1638.774315 777.971835 1637.38734 773.972982 1635.445576 C 769.965729 1633.503812 763.244969 1630.166667 753.810701 1625.450954 C 744.368033 1620.726835 738.932618 1617.809986 737.504457 1616.700406 C 736.076295 1615.590827 732.430283 1613.16152 726.566419 1609.412486 C 720.702556 1605.663452 716.266854 1602.889503 713.267715 1601.082233 C 710.260174 1599.274964 704.396311 1595.803325 695.676125 1590.667316 C 686.955938 1585.531308 680.949258 1581.916768 677.656086 1579.84051 C 674.371314 1577.755845 670.935326 1575.393786 667.364922 1572.754331 C 663.786117 1570.123283 659.711656 1566.996286 655.133138 1563.381746 C 650.55462 1559.775613 644.480733 1554.849752 636.903076 1548.595758 C 629.325418 1542.35017 622.747474 1536.936767 617.169243 1532.355549 C 611.591012 1527.77433 603.433689 1520.831052 592.714076 1511.525714 C 581.986063 1502.228783 575.122486 1496.395084 572.123347 1494.033025 C 569.115807 1491.670965 562.537863 1486.123067 552.389515 1477.37252 C 542.232765 1468.630378 536.587327 1463.696111 535.436397 1462.586531 C 534.293867 1461.476952 529.219693 1456.551091 520.213874 1447.800543 C 511.199655 1439.058401 504.907343 1432.804408 501.336939 1429.055374 C 497.758134 1425.30634 489.894844 1416.976087 477.738669 1404.064616 C 465.582494 1391.153145 458.290469 1383.243188 455.854193 1380.326338 C 453.426319 1377.409489 449.847514 1373.105665 445.134581 1367.414867 C 440.413247 1361.724069 436.691626 1357.142851 433.978119 1353.671212 C 431.264612 1350.199572 428.542704 1346.585033 425.829197 1342.835999 C 423.107289 1339.086965 420.250966 1335.203437 417.243425 1331.177008 C 414.244286 1327.150579 411.522378 1323.544446 409.094504 1320.350201 C 406.666629 1317.155957 404.591594 1314.306355 402.8778 1311.809801 C 401.155605 1309.313247 398.794938 1306.04335 395.795799 1302.016921 C 392.79666 1297.990492 390.217568 1294.384359 388.075326 1291.190115 C 385.924682 1287.99587 383.068359 1283.834947 379.489554 1278.690533 C 375.91915 1273.554524 373.197242 1269.528096 371.340632 1266.619652 C 369.484022 1263.702803 366.476482 1259.121584 362.334814 1252.867591 C 358.184744 1246.622003 355.471237 1242.318179 354.177491 1239.956119 C 352.892145 1237.602466 349.321741 1231.625867 343.457878 1222.05154 C 337.594015 1212.468808 333.729577 1206.22322 331.872967 1203.306371 C 330.016357 1200.389521 325.370632 1192.403911 317.92739 1179.357945 C 310.492549 1166.303574 304.914318 1156.443447 301.201098 1149.777563 C 297.479476 1143.120086 294.194705 1136.866092 291.329981 1131.0408 C 288.473658 1125.207101 284.466404 1116.456553 279.316622 1104.797562 C 274.17524 1093.130165 271.596148 1087.161972 271.596148 1086.884577 C 271.596148 1086.607182 269.025457 1080.218694 263.875675 1067.727518 C 258.725892 1055.227936 254.718639 1045.376215 251.862316 1038.155542 C 249.005993 1030.934869 244.998739 1019.965162 239.848957 1005.246421 C 234.699174 990.52768 229.557792 974.84226 224.40801 958.181755 C 219.258227 941.52125 213.53718 921.246206 207.244868 897.373433 C 200.952556 873.492255 196.516855 855.722171 193.946164 844.054774 C 191.375473 832.395782 187.796668 815.457883 183.21815 793.241074 C 178.648033 771.024265 175.926125 756.448425 175.069228 749.505147 C 174.212331 742.561868 172.355721 721.320145 169.490997 685.779976 C 166.634674 650.239806 164.769663 623.441779 163.912766 605.3943 C 163.055869 587.338414 162.056156 568.181355 160.913627 547.914716 C 159.771098 527.639672 158.191719 494.453156 156.192293 448.363575 C 154.192866 402.265589 153.193153 369.642269 153.193153 350.476804 L 153.193153 321.737012 L 155.982269 320.282791 C 157.838879 319.307706 162.913053 318.130879 171.204791 316.743904 C 179.50493 315.35693 190.938623 313.54966 205.531074 311.330501 C 220.115124 309.102936 242.285232 305.496803 272.024597 300.495289 C 301.772362 295.502181 323.077172 291.887641 335.947428 289.668482 C 348.817684 287.449323 365.83801 283.977684 387.000004 279.253565 C 408.170399 274.537852 426.467669 270.091128 441.917017 265.921799 C 457.357964 261.760875 470.656668 257.868941 481.81313 254.262807 C 492.969592 250.656674 501.689779 247.874319 507.982091 245.932555 C 514.274403 243.990791 520.281082 242.049026 526.002129 240.098856 C 531.723177 238.157092 543.165271 233.996169 560.328413 227.60768 C 577.483153 221.219192 593.570973 214.763457 608.591873 208.240474 C 623.604371 201.709085 631.610477 198.380346 632.61019 198.237446 C 633.618304 198.102952 640.83472 194.975955 654.276241 188.873267 C 667.717762 182.762174 679.873937 177.20587 690.744767 172.212762 C 701.615596 167.211248 712.335209 162.209734 722.920407 157.216626 C 733.505604 152.215112 746.661493 145.69213 762.388072 137.639272 L 785.986341 125.559985 L 791.564572 125.559985 Z M 791.556171 125.559985 " transform="matrix(0.464977,0,0,0.464703,17.378059,-24.371546)"/>
<path style="fill-rule:evenodd;fill:rgb(0%,0%,0%);fill-opacity:1;stroke-width:2;stroke-linecap:butt;stroke-linejoin:miter;stroke:rgb(0%,0%,0%);stroke-opacity:1;stroke-miterlimit:4;" d="M 789.665958 170.002009 L 794.840943 170.002009 L 817.120264 181.366793 C 831.981545 188.94892 841.793855 193.916811 846.565595 196.270464 C 851.337335 198.624118 867.584773 206.265086 895.307909 219.210181 C 923.022644 232.14687 937.346265 238.678258 938.27877 238.812753 C 939.202875 238.938841 946.570508 242.015403 960.356468 248.025625 C 974.150828 254.035848 984.761229 258.482572 992.187669 261.357392 C 999.614109 264.232212 1010.358925 268.149364 1024.413715 273.117254 C 1038.476906 278.085144 1047.365111 281.220547 1051.078331 282.523462 C 1054.791551 283.834784 1059.428876 285.406688 1064.998706 287.230769 C 1070.568536 289.063257 1077.734547 291.282416 1086.488337 293.896653 C 1095.242128 296.510889 1106.381788 299.646292 1119.907318 303.311267 C 1133.441249 306.967836 1146.563534 310.237733 1159.299374 313.112553 C 1172.035215 315.987373 1180.251345 317.811454 1183.964565 318.601609 C 1187.686186 319.383359 1199.489521 321.602518 1219.382972 325.267493 C 1239.276422 328.924062 1251.743433 331.143221 1256.784003 331.933376 C 1261.816172 332.715125 1274.157168 334.673701 1293.781788 337.809104 C 1313.414809 340.944507 1323.361535 342.516411 1323.621964 342.516411 C 1323.890795 342.516411 1333.442675 344.348899 1352.269205 348.005468 C 1371.104136 351.662037 1380.588809 353.561771 1380.723224 353.68786 L 1380.916446 353.889602 L 1379.723511 412.310646 C 1378.925421 451.255207 1376.942796 501.572958 1373.758836 563.255494 C 1370.574876 624.946436 1368.054591 668.077138 1366.197981 692.647601 C 1364.341371 717.218063 1362.21593 738.258045 1359.83006 755.775952 C 1357.444191 773.285454 1354.655075 789.887117 1351.471115 805.572537 C 1348.295556 821.249552 1344.842765 837.069466 1341.129545 853.007063 C 1337.416325 868.953066 1334.097949 882.940493 1331.18282 894.960938 C 1328.26769 906.989789 1324.814899 919.926478 1320.84125 933.779411 C 1316.859199 947.632343 1314.473329 955.99622 1313.675239 958.871039 C 1312.877149 961.745859 1311.684214 965.410834 1310.096434 969.849152 C 1308.500253 974.295876 1306.643643 979.784933 1304.526604 986.316321 C 1302.401163 992.856116 1299.091189 1002.262324 1294.579879 1014.551759 C 1290.068568 1026.832787 1286.355348 1036.634073 1283.440218 1043.955617 C 1280.516688 1051.277161 1276.937883 1060.027708 1272.695403 1070.224072 C 1268.452923 1080.420436 1263.009107 1092.701464 1256.380757 1107.083968 C 1249.752407 1121.458067 1245.770357 1129.821943 1244.443007 1132.175597 C 1243.115656 1134.52925 1238.276709 1143.086462 1229.926164 1157.855639 C 1221.567219 1172.624815 1216.526648 1181.383769 1214.804454 1184.124094 C 1213.082259 1186.872825 1208.965793 1193.799291 1202.471858 1204.911899 C 1195.969523 1216.0161 1191.727043 1223.077061 1189.736018 1226.077969 C 1187.744992 1229.087283 1184.695447 1233.794591 1180.587383 1240.199891 C 1176.470917 1246.596785 1173.160943 1251.564675 1170.640657 1255.095156 C 1168.120372 1258.625636 1165.205242 1262.803371 1161.886867 1267.645173 C 1158.568492 1272.478569 1155.384531 1276.925293 1152.334986 1280.976939 C 1149.285441 1285.028586 1146.899572 1288.424572 1145.177377 1291.164897 C 1143.446781 1293.913628 1140.926496 1297.444108 1137.616521 1301.756338 C 1134.298146 1306.068568 1131.114186 1310.380797 1128.064641 1314.693027 C 1125.015096 1319.005256 1121.69672 1323.451981 1118.117915 1328.024793 C 1114.539111 1332.597606 1111.489566 1336.514758 1108.96928 1339.784655 C 1106.448995 1343.054553 1101.072387 1349.258111 1092.856258 1358.412142 C 1084.631727 1367.557768 1074.945431 1378.014714 1063.805771 1389.774576 C 1052.666111 1401.534438 1042.853801 1411.604713 1034.36044 1419.96859 C 1025.87548 1428.332466 1020.238442 1433.628186 1017.449327 1435.847345 C 1014.668612 1438.066505 1008.166277 1443.690055 997.959122 1452.709592 C 987.743566 1461.720723 981.510061 1467.20978 979.258606 1469.176761 C 976.998751 1471.135338 971.428921 1475.968733 962.549116 1483.676949 C 953.66091 1491.39357 947.82225 1496.36146 945.041535 1498.58062 C 942.25242 1500.799779 939.06846 1503.414015 935.489655 1506.42333 C 931.91085 1509.424238 926.937487 1513.543132 920.569567 1518.771605 C 914.201646 1524.000078 909.362699 1527.858389 906.044324 1530.338131 C 902.734349 1532.817873 899.550389 1535.045438 896.500844 1537.004014 C 893.451299 1538.96259 887.881469 1542.358576 879.791354 1547.200378 C 871.701238 1552.033774 866.391838 1555.303671 863.871553 1557.001664 C 861.351267 1558.699657 858.503345 1560.464897 855.319385 1562.288979 C 852.135425 1564.121466 848.817049 1566.214537 845.37266 1568.56819 C 841.919869 1570.921844 839.399584 1572.619837 837.811804 1573.662169 C 836.215624 1574.712907 832.771234 1576.536989 827.470234 1579.151226 C 822.160834 1581.765462 815.792913 1584.774776 808.366473 1588.170762 C 800.940033 1591.566748 795.765048 1593.794313 792.849918 1594.836646 L 788.473023 1596.40855 L 783.701283 1595.231723 C 780.517323 1594.441568 777.064532 1593.138653 773.351312 1591.306165 C 769.638092 1589.473678 763.404587 1586.338275 754.650796 1581.899957 C 745.905407 1577.453233 740.864837 1574.712907 739.537487 1573.662169 C 738.210136 1572.619837 734.824553 1570.33343 729.389139 1566.80295 C 723.953724 1563.27247 719.837258 1560.658233 717.056543 1558.96024 C 714.267428 1557.262247 708.832013 1553.99235 700.741898 1549.158954 C 692.651782 1544.325558 687.081952 1540.921166 684.032407 1538.96259 C 680.982862 1537.004014 677.798902 1534.784855 674.480527 1532.296707 C 671.170552 1529.816965 667.390125 1526.874898 663.139244 1523.478912 C 658.896764 1520.082926 653.259726 1515.442866 646.236531 1509.558732 C 639.204936 1503.674598 633.105846 1498.58062 627.930861 1494.26839 C 622.755875 1489.95616 615.19502 1483.416366 605.248294 1474.665818 C 595.301569 1465.906864 588.94205 1460.417808 586.152934 1458.198649 C 583.37222 1455.971084 577.264729 1450.74261 567.855664 1442.513229 C 558.438199 1434.275441 553.196006 1429.635381 552.137486 1428.593049 C 551.078966 1427.550717 546.366033 1422.910657 538.007087 1414.672869 C 529.656543 1406.443487 523.817882 1400.559353 520.507908 1397.028873 C 517.189532 1393.498393 509.897507 1385.655683 498.623432 1373.509149 C 487.349357 1361.354209 480.57819 1353.898171 478.326736 1351.157846 C 476.075281 1348.409115 472.756906 1344.357468 468.38001 1339.002906 C 464.003115 1333.639938 460.558726 1329.327709 458.038441 1326.066217 C 455.518155 1322.79632 452.99787 1319.400334 450.477585 1315.869854 C 447.9573 1312.339373 445.3026 1308.682804 442.521885 1304.891741 C 439.73277 1301.100677 437.212485 1297.704691 434.96103 1294.695377 C 432.701174 1291.694469 430.777357 1289.012985 429.189577 1286.659331 C 427.601797 1284.305678 425.409149 1281.237522 422.628435 1277.446459 C 419.839319 1273.655395 417.453449 1270.259409 415.462424 1267.250095 C 413.471399 1264.249187 410.816698 1260.323629 407.506724 1255.490233 C 404.188348 1250.656837 401.668063 1246.865774 399.945869 1244.117043 C 398.223674 1241.376718 395.434558 1237.064488 391.586923 1231.180354 C 387.747689 1225.29622 385.227403 1221.244573 384.034468 1219.025414 C 382.833133 1216.806255 379.523158 1211.182704 374.079342 1202.163168 C 368.643927 1193.152037 365.065122 1187.267903 363.342928 1184.519171 C 361.612332 1181.778846 357.302644 1174.263967 350.405464 1161.974532 C 343.516685 1149.693504 338.341699 1140.413384 334.888909 1134.142579 C 331.444519 1127.863367 328.394974 1121.987639 325.740274 1116.498583 C 323.085573 1111.009526 319.372353 1102.771739 314.600613 1091.793626 C 309.828874 1080.815513 307.434603 1075.191962 307.434603 1074.931379 C 307.434603 1074.670796 305.048733 1068.660573 300.276993 1056.900711 C 295.505253 1045.132443 291.792033 1035.852324 289.137333 1029.060352 C 286.482632 1022.26838 282.769412 1011.937522 277.997673 998.084589 C 273.217532 984.231657 268.445792 969.462481 263.674052 953.777061 C 258.893911 938.100046 253.592912 919.018641 247.754251 896.532843 C 241.915591 874.055451 237.807526 857.327699 235.421656 846.349586 C 233.035786 835.371473 229.717411 819.42547 225.474931 798.511577 C 221.232451 777.606089 218.712166 763.879245 217.914075 757.347857 C 217.115985 750.808062 215.39379 730.818818 212.73909 697.354908 C 210.09279 663.899403 208.362195 638.67328 207.572505 621.684945 C 206.774415 604.696609 205.84191 586.657536 204.78339 567.57613 C 203.72487 548.494724 202.263105 517.258378 200.406495 473.867093 C 198.549885 430.475808 197.62578 399.760629 197.62578 381.729961 L 197.62578 354.671351 L 200.204872 353.301188 C 201.935468 352.384944 206.64 351.275365 214.33527 349.972449 C 222.030541 348.661128 232.63254 346.963135 246.166471 344.870065 C 259.692002 342.776994 280.249127 339.381008 307.837848 334.682107 C 335.426569 329.9748 355.185605 326.578814 367.123355 324.485743 C 379.052705 322.392673 394.838091 319.122776 414.471112 314.684457 C 434.095732 310.237733 451.074053 306.059998 465.397673 302.13444 C 479.721294 298.217288 492.053889 294.552313 502.40386 291.156327 C 512.74543 287.760342 520.835545 285.146105 526.674205 283.313617 C 532.504465 281.489536 538.074295 279.657048 543.383696 277.824561 C 548.684695 275.992074 559.295096 272.074922 575.214897 266.064699 C 591.126297 260.054476 606.046385 253.977007 619.97516 247.83229 C 633.895535 241.687572 641.321975 238.55217 642.254481 238.426081 C 643.178585 238.291587 649.882544 235.34952 662.349554 229.59988 C 674.816565 223.850241 686.09064 218.621767 696.16338 213.91446 C 706.24452 209.215559 716.191245 204.508252 726.011956 199.800944 C 735.824267 195.093637 748.022447 188.957326 762.614897 181.375199 L 784.499373 170.002009 Z M 789.665958 170.002009 " transform="matrix(0.464977,0,0,0.464703,17.378059,-24.371546)"/>
<g clip-path="url(#clip3)" clip-rule="nonzero">
<path style=" stroke:none;fill-rule:nonzero;fill:rgb(100%,76.469421%,0%);fill-opacity:1;" d="M 278.253906 383.910156 C 278.253906 325.558594 325.558594 278.253906 383.910156 278.253906 C 413.039062 278.253906 439.398438 290.039062 458.511719 309.101562 L 504.09375 263.328125 C 473.304688 232.632812 430.820312 213.660156 383.910156 213.660156 C 289.882812 213.660156 213.660156 289.882812 213.660156 383.910156 C 213.660156 384.132812 213.667969 384.359375 213.667969 384.574219 L 278.261719 384.386719 C 278.261719 384.226562 278.253906 384.066406 278.253906 383.910156 "/>
</g>
<g clip-path="url(#clip4)" clip-rule="nonzero">
<path style=" stroke:none;fill-rule:nonzero;fill:rgb(100%,76.469421%,0%);fill-opacity:1;" d="M 489.554688 384.253906 C 489.371094 442.445312 442.140625 489.570312 383.910156 489.570312 C 354.925781 489.570312 328.667969 477.890625 309.578125 458.992188 L 264 504.757812 C 294.769531 535.296875 337.136719 554.160156 383.910156 554.160156 C 477.890625 554.160156 554.078125 478.011719 554.160156 384.054688 L 489.554688 384.253906 "/>
</g>
<path style=" stroke:none;fill-rule:nonzero;fill:rgb(100%,76.469421%,0%);fill-opacity:1;" d="M 448.511719 383.910156 C 448.511719 419.886719 419.339844 449.054688 383.363281 449.054688 C 347.382812 449.054688 318.21875 419.886719 318.21875 383.910156 C 318.21875 347.929688 347.382812 318.765625 383.363281 318.765625 C 419.339844 318.765625 448.511719 347.929688 448.511719 383.910156 "/>
</g>
</svg>
