<?xml version="1.0" standalone="no"?>
<!DOCTYPE svg PUBLIC "-//W3C//DTD SVG 20010904//EN"
 "http://www.w3.org/TR/2001/REC-SVG-20010904/DTD/svg10.dtd">
<svg version="1.0" xmlns="http://www.w3.org/2000/svg"
 width="500.000000pt" height="500.000000pt" viewBox="0 0 500.000000 500.000000"
 preserveAspectRatio="xMidYMid meet">

<g transform="translate(0.000000,500.000000) scale(0.100000,-0.100000)"
fill="#000000" stroke="none">
<path d="M2415 4783 c-131 -68 -379 -180 -545 -246 -315 -125 -576 -194 -1000
-261 -124 -20 -245 -40 -270 -44 l-45 -7 -1 -175 c-1 -194 26 -741 50 -1005
35 -396 197 -970 373 -1319 99 -197 317 -531 463 -711 150 -184 557 -552 733
-663 37 -23 95 -60 130 -81 74 -47 165 -91 190 -91 68 0 351 174 552 342 294
244 470 428 648 675 335 467 526 908 651 1510 43 207 56 343 90 968 3 50 8
192 12 316 6 219 6 227 -13 233 -10 3 -142 26 -292 51 -496 82 -729 145 -1077
289 -115 47 -385 171 -491 225 -34 17 -68 31 -75 31 -7 -1 -44 -17 -83 -37z
m312 -252 c453 -214 728 -304 1143 -376 113 -19 259 -45 324 -56 l119 -22 -7
-226 c-16 -538 -47 -946 -87 -1140 -92 -452 -217 -794 -403 -1111 -214 -364
-409 -602 -696 -850 -197 -170 -263 -220 -377 -289 -149 -90 -226 -124 -263
-116 -43 9 -302 168 -390 239 -168 135 -351 299 -444 397 -220 233 -475 620
-602 916 -143 331 -261 770 -289 1083 -28 296 -64 1100 -50 1100 34 0 627 107
725 130 272 66 572 179 876 330 117 58 188 88 204 86 14 -2 111 -45 217 -95z"/>
<path d="M2350 4445 c-170 -87 -449 -206 -600 -256 -182 -59 -373 -103 -650
-149 -135 -23 -254 -43 -264 -47 -18 -5 -19 -14 -12 -222 8 -253 32 -686 47
-851 12 -134 62 -376 119 -575 110 -386 254 -682 502 -1027 135 -188 269 -331
484 -514 176 -151 222 -185 361 -268 136 -82 161 -87 234 -51 210 106 517 349
731 582 280 302 527 719 661 1113 71 209 136 486 162 686 18 147 43 570 52
885 6 227 5 237 -13 243 -10 3 -138 26 -284 51 -490 84 -731 162 -1199 386
-90 44 -173 79 -185 78 -12 0 -77 -29 -146 -64z m397 -980 c121 -30 257 -96
363 -176 44 -33 82 -65 86 -71 4 -5 -53 -70 -126 -143 l-133 -133 -46 38
c-145 120 -348 168 -531 124 -115 -27 -204 -77 -295 -168 -67 -66 -90 -97
-123 -166 -42 -88 -62 -163 -62 -230 l0 -40 -191 0 -192 0 6 83 c25 323 214
618 504 786 87 50 253 106 355 120 109 15 271 5 385 -24z m-84 -624 c150 -72
237 -240 208 -402 -48 -276 -358 -408 -589 -252 -63 43 -127 128 -147 197 -19
63 -19 169 0 231 32 109 132 209 243 246 87 29 199 21 285 -20z m833 -413
c-44 -446 -343 -796 -769 -898 -290 -70 -590 -5 -835 180 -45 34 -84 66 -88
72 -4 5 53 70 126 143 l133 133 46 -38 c189 -156 464 -184 684 -68 82 43 212
173 255 255 36 68 72 195 72 255 l0 38 191 0 192 0 -7 -72z"/>
</g>
</svg>
